<svg width="68" height="61" viewBox="0 0 68 61" fill="none" xmlns="http://www.w3.org/2000/svg">
<path d="M66.8597 50.41L39.9897 3.88C38.7797 1.79 36.5397 0.5 34.1297 0.5C31.7197 0.5 29.4697 1.8 28.2697 3.88L1.39969 50.41C0.189687 52.5 0.189687 55.09 1.39969 57.18C2.60969 59.27 4.84969 60.56 7.25969 60.56H60.9897C63.3997 60.56 65.6497 59.26 66.8497 57.18C68.0597 55.09 68.0597 52.5 66.8497 50.41H66.8597Z" fill="#F9B916"/>
<path d="M34.1316 4.72986C34.9816 4.72986 35.8416 5.14986 36.3216 5.99986L63.1916 52.5299C64.1616 54.2199 62.9516 56.3299 61.0016 56.3299H7.26156C5.31156 56.3299 4.09156 54.2199 5.07156 52.5299L31.9416 5.99986C32.4316 5.15986 33.2816 4.72986 34.1316 4.72986ZM34.1316 2.60986C32.4516 2.60986 30.9416 3.47986 30.1016 4.93986L3.23156 51.4699C2.39156 52.9299 2.39156 54.6599 3.23156 56.1199C4.07156 57.5799 5.58156 58.4499 7.26156 58.4499H60.9916C62.6716 58.4499 64.1816 57.5799 65.0216 56.1199C65.8616 54.6599 65.8616 52.9299 65.0216 51.4699L38.1516 4.93986C37.3116 3.47986 35.8016 2.60986 34.1216 2.60986H34.1316Z" fill="#231F20"/>
<path d="M36.2909 44.0499H31.9709L30.2109 16.1899H38.0509L36.2909 44.0499Z" fill="#231F20"/>
<path d="M36.1727 48.29H31.9727V52.49H36.1727V48.29Z" fill="#231F20"/>
</svg>
