<svg width="809" height="622" viewBox="0 0 809 622" fill="none" xmlns="http://www.w3.org/2000/svg">
<circle cx="151.827" cy="151.827" r="149.827" transform="matrix(-1 0 0 1 546.828 159.173)" stroke="#81202C" stroke-width="4"/>
<circle cx="195.906" cy="195.906" r="193.906" transform="matrix(-1 0 0 1 590.906 115.094)" stroke="#81202C" stroke-width="4"/>
<circle cx="251.004" cy="251.004" r="249.004" transform="matrix(-1 0 0 1 646.004 59.9961)" stroke="#81202C" stroke-width="4"/>
<circle cx="311" cy="311" r="309" transform="matrix(-1 0 0 1 706 0)" stroke="#81202C" stroke-width="4"/>
<rect x="451" y="211" width="98" height="26" rx="7" fill="#535252"/>
<path d="M458.148 232V215.2H462.036V228.832H470.46V232H458.148ZM479.886 232.288C475.11 232.288 472.278 229.552 472.278 224.608V215.2H476.166V224.464C476.166 227.656 477.558 228.976 479.91 228.976C482.286 228.976 483.654 227.656 483.654 224.464V215.2H487.494V224.608C487.494 229.552 484.662 232.288 479.886 232.288ZM499.376 232.288C494.168 232.288 490.28 228.664 490.28 223.6C490.28 218.536 494.168 214.912 499.4 214.912C502.304 214.912 504.728 215.968 506.312 217.888L503.816 220.192C502.688 218.896 501.272 218.224 499.592 218.224C496.448 218.224 494.216 220.432 494.216 223.6C494.216 226.768 496.448 228.976 499.592 228.976C501.272 228.976 502.688 228.304 503.816 226.984L506.312 229.288C504.728 231.232 502.304 232.288 499.376 232.288ZM523.817 232H519.641L516.401 227.32H516.209H512.825V232H508.937V215.2H516.209C520.697 215.2 523.505 217.528 523.505 221.296C523.505 223.816 522.233 225.664 520.049 226.6L523.817 232ZM519.569 221.296C519.569 219.448 518.369 218.368 515.993 218.368H512.825V224.224H515.993C518.369 224.224 519.569 223.12 519.569 221.296ZM534.722 232.288C529.418 232.288 525.53 228.592 525.53 223.6C525.53 218.608 529.418 214.912 534.722 214.912C540.002 214.912 543.914 218.584 543.914 223.6C543.914 228.616 540.002 232.288 534.722 232.288ZM534.722 228.976C537.722 228.976 539.978 226.792 539.978 223.6C539.978 220.408 537.722 218.224 534.722 218.224C531.722 218.224 529.466 220.408 529.466 223.6C529.466 226.792 531.722 228.976 534.722 228.976Z" fill="white"/>
<rect x="301" y="440" width="199" height="26" rx="7" fill="#535252"/>
<path d="M317.735 447.32H308.927V451.76H316.703V454.88H308.927V461H305.039V444.2H317.735V447.32ZM332.216 461L330.728 457.4H322.928L321.44 461H317.456L324.944 444.2H328.784L336.296 461H332.216ZM324.176 454.448H329.504L326.84 448.016L324.176 454.448ZM340.675 461V447.368H335.299V444.2H349.939V447.368H344.563V461H340.675ZM359.214 461.288C354.438 461.288 351.606 458.552 351.606 453.608V444.2H355.494V453.464C355.494 456.656 356.886 457.976 359.238 457.976C361.614 457.976 362.982 456.656 362.982 453.464V444.2H366.822V453.608C366.822 458.552 363.99 461.288 359.214 461.288ZM385.544 461H381.368L378.128 456.32H377.936H374.552V461H370.664V444.2H377.936C382.424 444.2 385.232 446.528 385.232 450.296C385.232 452.816 383.96 454.664 381.776 455.6L385.544 461ZM381.296 450.296C381.296 448.448 380.096 447.368 377.72 447.368H374.552V453.224H377.72C380.096 453.224 381.296 452.12 381.296 450.296ZM400.864 461L399.376 457.4H391.576L390.088 461H386.104L393.592 444.2H397.432L404.944 461H400.864ZM392.824 454.448H398.152L395.488 448.016L392.824 454.448ZM425.623 461H421.975L421.951 450.92L417.007 459.224H415.255L410.335 451.136V461H406.687V444.2H409.903L416.191 454.64L422.383 444.2H425.575L425.623 461ZM433.473 457.88H442.617V461H429.609V444.2H442.305V447.32H433.473V450.968H441.273V453.992H433.473V457.88ZM457.279 444.2H461.119V461H457.927L449.551 450.8V461H445.711V444.2H448.927L457.279 454.4V444.2ZM468.574 461V447.368H463.198V444.2H477.838V447.368H472.462V461H468.574ZM487.831 461.288C482.527 461.288 478.639 457.592 478.639 452.6C478.639 447.608 482.527 443.912 487.831 443.912C493.111 443.912 497.023 447.584 497.023 452.6C497.023 457.616 493.111 461.288 487.831 461.288ZM487.831 457.976C490.831 457.976 493.087 455.792 493.087 452.6C493.087 449.408 490.831 447.224 487.831 447.224C484.831 447.224 482.575 449.408 482.575 452.6C482.575 455.792 484.831 457.976 487.831 457.976Z" fill="white"/>
<rect x="182" y="180" width="141" height="48" rx="7" fill="#535252"/>
<path d="M198.66 194.264C200.532 194.864 201.732 196.304 201.732 198.416C201.732 201.32 199.428 203 195.012 203H186.324V186.2H194.532C198.732 186.2 200.892 187.952 200.892 190.568C200.892 192.248 200.028 193.544 198.66 194.264ZM194.052 189.128H190.188V193.088H194.052C195.948 193.088 196.98 192.416 196.98 191.096C196.98 189.776 195.948 189.128 194.052 189.128ZM194.724 200.072C196.74 200.072 197.82 199.448 197.82 198.008C197.82 196.592 196.74 195.92 194.724 195.92H190.188V200.072H194.724ZM217.228 203L215.74 199.4H207.94L206.452 203H202.468L209.956 186.2H213.796L221.308 203H217.228ZM209.188 196.448H214.516L211.852 190.016L209.188 196.448ZM234.619 186.2H238.459V203H235.267L226.891 192.8V203H223.051V186.2H226.267L234.619 196.4V186.2ZM250.473 203.288C245.265 203.288 241.377 199.664 241.377 194.6C241.377 189.536 245.265 185.912 250.497 185.912C253.401 185.912 255.825 186.968 257.409 188.888L254.913 191.192C253.785 189.896 252.369 189.224 250.689 189.224C247.545 189.224 245.313 191.432 245.313 194.6C245.313 197.768 247.545 199.976 250.689 199.976C252.369 199.976 253.785 199.304 254.913 197.984L257.409 200.288C255.825 202.232 253.401 203.288 250.473 203.288ZM267.819 203.288C262.515 203.288 258.627 199.592 258.627 194.6C258.627 189.608 262.515 185.912 267.819 185.912C273.099 185.912 277.011 189.584 277.011 194.6C277.011 199.616 273.099 203.288 267.819 203.288ZM267.819 199.976C270.819 199.976 273.075 197.792 273.075 194.6C273.075 191.408 270.819 189.224 267.819 189.224C264.819 189.224 262.563 191.408 262.563 194.6C262.563 197.792 264.819 199.976 267.819 199.976ZM286.73 203V186.2H294.362C299.858 186.2 303.626 189.512 303.626 194.6C303.626 199.688 299.858 203 294.362 203H286.73ZM290.618 199.808H294.17C297.506 199.808 299.69 197.816 299.69 194.6C299.69 191.384 297.506 189.392 294.17 189.392H290.618V199.808ZM310.422 199.88H319.566V203H306.558V186.2H319.254V189.32H310.422V192.968H318.222V195.992H310.422V199.88ZM224.256 223H220.608L220.584 212.92L215.64 221.224H213.888L208.968 213.136V223H205.32V206.2H208.536L214.824 216.64L221.016 206.2H224.208L224.256 223ZM228.242 223V206.2H232.13V223H228.242ZM236.117 223V206.2H240.005V219.832H248.429V223H236.117ZM262.121 206.2H266.009V223H262.121V216.112H254.489V223H250.601V206.2H254.489V212.824H262.121V206.2ZM282.536 223L281.048 219.4H273.248L271.76 223H267.776L275.264 206.2H279.104L286.616 223H282.536ZM274.496 216.448H279.824L277.16 210.016L274.496 216.448ZM293.879 223.288C291.215 223.288 288.527 222.496 287.039 221.344L288.359 218.416C289.775 219.448 291.887 220.168 293.903 220.168C296.207 220.168 297.143 219.4 297.143 218.368C297.143 215.224 287.375 217.384 287.375 211.144C287.375 208.288 289.679 205.912 294.455 205.912C296.567 205.912 298.727 206.416 300.287 207.4L299.087 210.352C297.527 209.464 295.919 209.032 294.431 209.032C292.127 209.032 291.239 209.896 291.239 210.952C291.239 214.048 301.007 211.912 301.007 218.08C301.007 220.888 298.679 223.288 293.879 223.288Z" fill="white"/>
<rect x="394" y="531" width="199" height="26" rx="7" fill="#535252"/>
<path d="M411.375 552.288C408.711 552.288 406.023 551.496 404.535 550.344L405.855 547.416C407.271 548.448 409.383 549.168 411.399 549.168C413.703 549.168 414.639 548.4 414.639 547.368C414.639 544.224 404.871 546.384 404.871 540.144C404.871 537.288 407.175 534.912 411.951 534.912C414.063 534.912 416.223 535.416 417.783 536.4L416.583 539.352C415.023 538.464 413.415 538.032 411.927 538.032C409.623 538.032 408.735 538.896 408.735 539.952C408.735 543.048 418.503 540.912 418.503 547.08C418.503 549.888 416.175 552.288 411.375 552.288ZM421.16 552V535.2H425.048V552H421.16ZM432.515 552V538.368H427.139V535.2H441.779V538.368H436.403V552H432.515ZM447.735 548.88H456.879V552H443.871V535.2H456.567V538.32H447.735V541.968H455.535V544.992H447.735V548.88ZM474.041 535.2C478.529 535.2 481.337 537.528 481.337 541.296C481.337 545.04 478.529 547.368 474.041 547.368H470.657V552H466.769V535.2H474.041ZM473.825 544.2C476.201 544.2 477.401 543.12 477.401 541.296C477.401 539.448 476.201 538.368 473.825 538.368H470.657V544.2H473.825ZM498.993 552H494.817L491.577 547.32H491.385H488.001V552H484.113V535.2H491.385C495.873 535.2 498.681 537.528 498.681 541.296C498.681 543.816 497.409 545.664 495.225 546.6L498.993 552ZM494.745 541.296C494.745 539.448 493.545 538.368 491.169 538.368H488.001V544.224H491.169C493.545 544.224 494.745 543.12 494.745 541.296ZM507.714 533.832L510.954 530.376H514.986L510.642 533.832H507.714ZM509.898 552.288C504.594 552.288 500.706 548.592 500.706 543.6C500.706 538.608 504.594 534.912 509.898 534.912C515.178 534.912 519.09 538.584 519.09 543.6C519.09 548.616 515.178 552.288 509.898 552.288ZM509.898 548.976C512.898 548.976 515.154 546.792 515.154 543.6C515.154 540.408 512.898 538.224 509.898 538.224C506.898 538.224 504.642 540.408 504.642 543.6C504.642 546.792 506.898 548.976 509.898 548.976ZM529.284 535.2C533.772 535.2 536.58 537.528 536.58 541.296C536.58 545.04 533.772 547.368 529.284 547.368H525.9V552H522.012V535.2H529.284ZM529.068 544.2C531.444 544.2 532.644 543.12 532.644 541.296C532.644 539.448 531.444 538.368 529.068 538.368H525.9V544.2H529.068ZM554.235 552H550.059L546.819 547.32H546.627H543.243V552H539.355V535.2H546.627C551.115 535.2 553.923 537.528 553.923 541.296C553.923 543.816 552.651 545.664 550.467 546.6L554.235 552ZM549.987 541.296C549.987 539.448 548.787 538.368 546.411 538.368H543.243V544.224H546.411C548.787 544.224 549.987 543.12 549.987 541.296ZM557.004 552V535.2H560.892V552H557.004ZM573.015 552.288C567.711 552.288 563.823 548.592 563.823 543.6C563.823 538.608 567.711 534.912 573.015 534.912C578.295 534.912 582.207 538.584 582.207 543.6C582.207 548.616 578.295 552.288 573.015 552.288ZM573.015 548.976C576.015 548.976 578.271 546.792 578.271 543.6C578.271 540.408 576.015 538.224 573.015 538.224C570.015 538.224 567.759 540.408 567.759 543.6C567.759 546.792 570.015 548.976 573.015 548.976Z" fill="white"/>
<rect x="7" y="320" width="229" height="52" rx="7" fill="#535252"/>
<path d="M22.4143 340.256V335.336H25.9663V342.152C24.1183 343.544 21.5743 344.288 19.1743 344.288C13.8943 344.288 10.0063 340.664 10.0063 335.6C10.0063 330.536 13.8943 326.912 19.2463 326.912C22.1983 326.912 24.6463 327.92 26.2783 329.816L23.7823 332.12C22.5583 330.824 21.1423 330.224 19.4383 330.224C16.1743 330.224 13.9423 332.408 13.9423 335.6C13.9423 338.744 16.1743 340.976 19.3903 340.976C20.4463 340.976 21.4303 340.784 22.4143 340.256ZM33.4419 340.88H42.5859V344H29.5779V327.2H42.2739V330.32H33.4419V333.968H41.2419V336.992H33.4419V340.88ZM60.5595 344H56.3835L53.1435 339.32H52.9515H49.5675V344H45.6795V327.2H52.9515C57.4395 327.2 60.2475 329.528 60.2475 333.296C60.2475 335.816 58.9755 337.664 56.7915 338.6L60.5595 344ZM56.3115 333.296C56.3115 331.448 55.1115 330.368 52.7355 330.368H49.5675V336.224H52.7355C55.1115 336.224 56.3115 335.12 56.3115 333.296ZM67.1919 340.88H76.3359V344H63.3279V327.2H76.0239V330.32H67.1919V333.968H74.9919V336.992H67.1919V340.88ZM90.9975 327.2H94.8375V344H91.6455L83.2695 333.8V344H79.4295V327.2H82.6455L90.9975 337.4V327.2ZM106.852 344.288C101.644 344.288 97.7563 340.664 97.7563 335.6C97.7563 330.536 101.644 326.912 106.876 326.912C109.78 326.912 112.204 327.968 113.788 329.888L111.292 332.192C110.164 330.896 108.748 330.224 107.068 330.224C103.924 330.224 101.692 332.432 101.692 335.6C101.692 338.768 103.924 340.976 107.068 340.976C108.748 340.976 110.164 340.304 111.292 338.984L113.788 341.288C112.204 343.232 109.78 344.288 106.852 344.288ZM116.414 344V327.2H120.302V344H116.414ZM136.841 344L135.353 340.4H127.553L126.065 344H122.081L129.569 327.2H133.409L140.921 344H136.841ZM128.801 337.448H134.129L131.465 331.016L128.801 337.448ZM161.6 344H157.952L157.928 333.92L152.984 342.224H151.232L146.312 334.136V344H142.664V327.2H145.88L152.168 337.64L158.36 327.2H161.552L161.6 344ZM169.45 340.88H178.594V344H165.586V327.2H178.282V330.32H169.45V333.968H177.25V336.992H169.45V340.88ZM193.255 327.2H197.095V344H193.903L185.527 333.8V344H181.687V327.2H184.903L193.255 337.4V327.2ZM204.55 344V330.368H199.174V327.2H213.814V330.368H208.438V344H204.55ZM223.808 344.288C218.504 344.288 214.616 340.592 214.616 335.6C214.616 330.608 218.504 326.912 223.808 326.912C229.088 326.912 233 330.584 233 335.6C233 340.616 229.088 344.288 223.808 344.288ZM223.808 340.976C226.808 340.976 229.064 338.792 229.064 335.6C229.064 332.408 226.808 330.224 223.808 330.224C220.808 330.224 218.552 332.408 218.552 335.6C218.552 338.792 220.808 340.976 223.808 340.976ZM22.4061 366V349.2H30.0381C35.5341 349.2 39.3021 352.512 39.3021 357.6C39.3021 362.688 35.5341 366 30.0381 366H22.4061ZM26.2941 362.808H29.8461C33.1821 362.808 35.3661 360.816 35.3661 357.6C35.3661 354.384 33.1821 352.392 29.8461 352.392H26.2941V362.808ZM46.0982 362.88H55.2422V366H42.2342V349.2H54.9302V352.32H46.0982V355.968H53.8982V358.992H46.0982V362.88ZM65.1326 366V349.2H69.0206V362.832H77.4446V366H65.1326ZM83.481 362.88H92.625V366H79.617V349.2H92.313V352.32H83.481V355.968H91.281V358.992H83.481V362.88ZM108.271 366L106.783 362.4H98.9826L97.4946 366H93.5106L100.999 349.2H104.839L112.351 366H108.271ZM100.231 359.448H105.559L102.895 353.016L100.231 359.448ZM114.094 366V349.2H121.726C127.222 349.2 130.99 352.512 130.99 357.6C130.99 362.688 127.222 366 121.726 366H114.094ZM117.982 362.808H121.534C124.87 362.808 127.054 360.816 127.054 357.6C127.054 354.384 124.87 352.392 121.534 352.392H117.982V362.808ZM139.442 366.288C136.778 366.288 134.09 365.496 132.602 364.344L133.922 361.416C135.338 362.448 137.45 363.168 139.466 363.168C141.77 363.168 142.706 362.4 142.706 361.368C142.706 358.224 132.938 360.384 132.938 354.144C132.938 351.288 135.242 348.912 140.018 348.912C142.13 348.912 144.29 349.416 145.85 350.4L144.65 353.352C143.09 352.464 141.482 352.032 139.994 352.032C137.69 352.032 136.802 352.896 136.802 353.952C136.802 357.048 146.57 354.912 146.57 361.08C146.57 363.888 144.242 366.288 139.442 366.288ZM158.783 370.656C156.863 367.752 155.783 363.84 155.783 359.424C155.783 355.008 156.863 351.048 158.783 348.192H162.359C160.319 351.792 159.455 355.392 159.455 359.424C159.455 363.456 160.319 367.056 162.359 370.656H158.783ZM179.481 366H175.305L172.065 361.32H171.873H168.489V366H164.601V349.2H171.873C176.361 349.2 179.169 351.528 179.169 355.296C179.169 357.816 177.897 359.664 175.713 360.6L179.481 366ZM175.233 355.296C175.233 353.448 174.033 352.368 171.657 352.368H168.489V358.224H171.657C174.033 358.224 175.233 357.12 175.233 355.296ZM190.29 366.288C185.082 366.288 181.194 362.664 181.194 357.6C181.194 352.536 185.082 348.912 190.314 348.912C193.218 348.912 195.642 349.968 197.226 351.888L194.73 354.192C193.602 352.896 192.186 352.224 190.506 352.224C187.362 352.224 185.13 354.432 185.13 357.6C185.13 360.768 187.362 362.976 190.506 362.976C192.186 362.976 193.602 362.304 194.73 360.984L197.226 363.288C195.642 365.232 193.218 366.288 190.29 366.288ZM218.787 366H215.139L215.115 355.92L210.171 364.224H208.419L203.499 356.136V366H199.851V349.2H203.067L209.355 359.64L215.547 349.2H218.739L218.787 366ZM224.597 370.656H221.021C223.085 367.056 223.949 363.456 223.949 359.424C223.949 355.392 223.085 351.792 221.021 348.192H224.597C226.565 351.048 227.621 355.008 227.621 359.424C227.621 363.84 226.565 367.752 224.597 370.656Z" fill="white"/>
<rect x="566" y="294" width="243" height="52" rx="7" fill="#535252"/>
<path d="M584.892 318L583.404 314.4H575.604L574.116 318H570.132L577.62 301.2H581.46L588.972 318H584.892ZM576.852 311.448H582.18L579.516 305.016L576.852 311.448ZM597.827 318.288C593.051 318.288 590.219 315.552 590.219 310.608V301.2H594.107V310.464C594.107 313.656 595.499 314.976 597.851 314.976C600.227 314.976 601.595 313.656 601.595 310.464V301.2H605.435V310.608C605.435 315.552 602.603 318.288 597.827 318.288ZM609.277 318V301.2H613.165V314.832H621.589V318H609.277ZM636.454 318L634.966 314.4H627.166L625.678 318H621.694L629.182 301.2H633.022L640.534 318H636.454ZM628.414 311.448H633.742L631.078 305.016L628.414 311.448ZM647.797 318.288C645.133 318.288 642.445 317.496 640.957 316.344L642.277 313.416C643.693 314.448 645.805 315.168 647.821 315.168C650.125 315.168 651.061 314.4 651.061 313.368C651.061 310.224 641.293 312.384 641.293 306.144C641.293 303.288 643.597 300.912 648.373 300.912C650.485 300.912 652.645 301.416 654.205 302.4L653.005 305.352C651.445 304.464 649.837 304.032 648.349 304.032C646.045 304.032 645.157 304.896 645.157 305.952C645.157 309.048 654.925 306.912 654.925 313.08C654.925 315.888 652.597 318.288 647.797 318.288ZM675.731 314.256V309.336H679.283V316.152C677.435 317.544 674.891 318.288 672.491 318.288C667.211 318.288 663.323 314.664 663.323 309.6C663.323 304.536 667.211 300.912 672.563 300.912C675.515 300.912 677.963 301.92 679.595 303.816L677.099 306.12C675.875 304.824 674.459 304.224 672.755 304.224C669.491 304.224 667.259 306.408 667.259 309.6C667.259 312.744 669.491 314.976 672.707 314.976C673.763 314.976 674.747 314.784 675.731 314.256ZM697.774 318H693.598L690.358 313.32H690.166H686.782V318H682.894V301.2H690.166C694.654 301.2 697.462 303.528 697.462 307.296C697.462 309.816 696.19 311.664 694.006 312.6L697.774 318ZM693.526 307.296C693.526 305.448 692.326 304.368 689.95 304.368H686.782V310.224H689.95C692.326 310.224 693.526 309.12 693.526 307.296ZM713.095 318L711.607 314.4H703.807L702.319 318H698.335L705.823 301.2H709.663L717.175 318H713.095ZM705.055 311.448H710.383L707.719 305.016L705.055 311.448ZM730.292 301.2H734.156L726.884 318H723.044L715.796 301.2H719.996L725.108 313.2L730.292 301.2ZM747.548 318L746.06 314.4H738.26L736.772 318H732.788L740.276 301.2H744.116L751.628 318H747.548ZM739.508 311.448H744.836L742.172 305.016L739.508 311.448ZM753.371 318V301.2H761.003C766.499 301.2 770.267 304.512 770.267 309.6C770.267 314.688 766.499 318 761.003 318H753.371ZM757.259 314.808H760.811C764.147 314.808 766.331 312.816 766.331 309.6C766.331 306.384 764.147 304.392 760.811 304.392H757.259V314.808ZM785.517 318L784.029 314.4H776.229L774.741 318H770.757L778.245 301.2H782.085L789.597 318H785.517ZM777.477 311.448H782.805L780.141 305.016L777.477 311.448ZM796.86 318.288C794.196 318.288 791.508 317.496 790.02 316.344L791.34 313.416C792.756 314.448 794.868 315.168 796.884 315.168C799.188 315.168 800.124 314.4 800.124 313.368C800.124 310.224 790.356 312.384 790.356 306.144C790.356 303.288 792.66 300.912 797.436 300.912C799.548 300.912 801.708 301.416 803.268 302.4L802.068 305.352C800.508 304.464 798.9 304.032 797.412 304.032C795.108 304.032 794.22 304.896 794.22 305.952C794.22 309.048 803.988 306.912 803.988 313.08C803.988 315.888 801.66 318.288 796.86 318.288ZM627.848 336.88H636.992V340H623.984V323.2H636.68V326.32H627.848V329.968H635.648V332.992H627.848V336.88ZM659.435 340L657.947 336.4H650.147L648.659 340H644.675L652.163 323.2H656.003L663.515 340H659.435ZM651.395 333.448H656.723L654.059 327.016L651.395 333.448ZM673.159 340.288C667.855 340.288 663.967 336.592 663.967 331.6C663.967 326.608 667.855 322.912 673.159 322.912C678.439 322.912 682.351 326.584 682.351 331.6C682.351 336.616 678.439 340.288 673.159 340.288ZM673.159 336.976C676.159 336.976 678.415 334.792 678.415 331.6C678.415 328.408 676.159 326.224 673.159 326.224C670.159 326.224 667.903 328.408 667.903 331.6C667.903 334.792 670.159 336.976 673.159 336.976ZM704.358 323.2H708.222L700.95 340H697.11L689.862 323.2H694.062L699.174 335.2L704.358 323.2ZM709.625 340V323.2H713.513V340H709.625ZM729.694 323.2H733.558L726.286 340H722.446L715.198 323.2H719.398L724.51 335.2L729.694 323.2ZM742.886 340.288C737.582 340.288 733.694 336.592 733.694 331.6C733.694 326.608 737.582 322.912 742.886 322.912C748.166 322.912 752.078 326.584 752.078 331.6C752.078 336.616 748.166 340.288 742.886 340.288ZM742.886 336.976C745.886 336.976 748.142 334.792 748.142 331.6C748.142 328.408 745.886 326.224 742.886 326.224C739.886 326.224 737.63 328.408 737.63 331.6C737.63 334.792 739.886 336.976 742.886 336.976Z" fill="white"/>
<rect x="75" y="524" width="249" height="52" rx="7" fill="#535252"/>
<path d="M93.1182 548L91.6302 544.4H83.8302L82.3422 548H78.3582L85.8462 531.2H89.6862L97.1982 548H93.1182ZM85.0782 541.448H90.4062L87.7422 535.016L85.0782 541.448ZM110.059 544.256V539.336H113.611V546.152C111.763 547.544 109.219 548.288 106.819 548.288C101.539 548.288 97.6508 544.664 97.6508 539.6C97.6508 534.536 101.539 530.912 106.891 530.912C109.843 530.912 112.291 531.92 113.923 533.816L111.427 536.12C110.203 534.824 108.787 534.224 107.083 534.224C103.819 534.224 101.587 536.408 101.587 539.6C101.587 542.744 103.819 544.976 107.035 544.976C108.091 544.976 109.075 544.784 110.059 544.256ZM121.086 544.88H130.23V548H117.222V531.2H129.918V534.32H121.086V537.968H128.886V540.992H121.086V544.88ZM144.892 531.2H148.732V548H145.54L137.164 537.8V548H133.324V531.2H136.54L144.892 541.4V531.2ZM152.707 548V531.2H160.339C165.835 531.2 169.603 534.512 169.603 539.6C169.603 544.688 165.835 548 160.339 548H152.707ZM156.595 544.808H160.147C163.483 544.808 165.667 542.816 165.667 539.6C165.667 536.384 163.483 534.392 160.147 534.392H156.595V544.808ZM184.853 548L183.365 544.4H175.565L174.077 548H170.093L177.581 531.2H181.421L188.933 548H184.853ZM176.813 541.448H182.141L179.477 535.016L176.813 541.448ZM202.992 548.288C200.328 548.288 197.64 547.496 196.152 546.344L197.472 543.416C198.888 544.448 201 545.168 203.016 545.168C205.32 545.168 206.256 544.4 206.256 543.368C206.256 540.224 196.488 542.384 196.488 536.144C196.488 533.288 198.792 530.912 203.568 530.912C205.68 530.912 207.84 531.416 209.4 532.4L208.2 535.352C206.64 534.464 205.032 534.032 203.544 534.032C201.24 534.032 200.352 534.896 200.352 535.952C200.352 539.048 210.12 536.912 210.12 543.08C210.12 545.888 207.792 548.288 202.992 548.288ZM216.641 544.88H225.785V548H212.777V531.2H225.473V534.32H216.641V537.968H224.441V540.992H216.641V544.88ZM247.815 548H244.167L244.143 537.92L239.199 546.224H237.447L232.527 538.136V548H228.879V531.2H232.095L238.383 541.64L244.575 531.2H247.767L247.815 548ZM264.353 548L262.865 544.4H255.065L253.577 548H249.593L257.081 531.2H260.921L268.433 548H264.353ZM256.313 541.448H261.641L258.977 535.016L256.313 541.448ZM281.744 531.2H285.584V548H282.392L274.016 537.8V548H270.176V531.2H273.392L281.744 541.4V531.2ZM302.11 548L300.622 544.4H292.822L291.334 548H287.35L294.838 531.2H298.678L306.19 548H302.11ZM294.07 541.448H299.398L296.734 535.016L294.07 541.448ZM307.933 548V531.2H311.821V544.832H320.245V548H307.933ZM140.622 566.88H149.766V570H136.758V553.2H149.454V556.32H140.622V559.968H148.422V562.992H140.622V566.88ZM178.592 570H174.944L174.92 559.92L169.976 568.224H168.224L163.304 560.136V570H159.656V553.2H162.872L169.16 563.64L175.352 553.2H178.544L178.592 570ZM186.442 566.88H195.586V570H182.578V553.2H195.274V556.32H186.442V559.968H194.242V562.992H186.442V566.88ZM210.247 553.2H214.088V570H210.896L202.52 559.8V570H198.68V553.2H201.896L210.247 563.4V553.2ZM223.582 570.288C220.918 570.288 218.23 569.496 216.742 568.344L218.062 565.416C219.478 566.448 221.59 567.168 223.606 567.168C225.91 567.168 226.846 566.4 226.846 565.368C226.846 562.224 217.078 564.384 217.078 558.144C217.078 555.288 219.382 552.912 224.158 552.912C226.27 552.912 228.43 553.416 229.99 554.4L228.79 557.352C227.23 556.464 225.622 556.032 224.134 556.032C221.83 556.032 220.942 556.896 220.942 557.952C220.942 561.048 230.71 558.912 230.71 565.08C230.71 567.888 228.382 570.288 223.582 570.288ZM245.919 570L244.431 566.4H236.631L235.143 570H231.159L238.647 553.2H242.487L249.999 570H245.919ZM237.879 563.448H243.207L240.543 557.016L237.879 563.448ZM251.742 570V553.2H255.63V566.832H264.054V570H251.742Z" fill="white"/>
<rect x="517" y="56" width="170" height="52" rx="7" fill="#535252"/>
<path d="M542.43 80.288C537.222 80.288 533.334 76.664 533.334 71.6C533.334 66.536 537.222 62.912 542.454 62.912C545.358 62.912 547.782 63.968 549.366 65.888L546.87 68.192C545.742 66.896 544.326 66.224 542.646 66.224C539.502 66.224 537.27 68.432 537.27 71.6C537.27 74.768 539.502 76.976 542.646 76.976C544.326 76.976 545.742 76.304 546.87 74.984L549.366 77.288C547.782 79.232 545.358 80.288 542.43 80.288ZM559.776 80.288C554.472 80.288 550.584 76.592 550.584 71.6C550.584 66.608 554.472 62.912 559.776 62.912C565.056 62.912 568.968 66.584 568.968 71.6C568.968 76.616 565.056 80.288 559.776 80.288ZM559.776 76.976C562.776 76.976 565.032 74.792 565.032 71.6C565.032 68.408 562.776 66.224 559.776 66.224C556.776 66.224 554.52 68.408 554.52 71.6C554.52 74.792 556.776 76.976 559.776 76.976ZM583.458 63.2H587.298V80H584.106L575.73 69.8V80H571.89V63.2H575.106L583.458 73.4V63.2ZM594.753 80V66.368H589.377V63.2H604.017V66.368H598.641V80H594.753ZM620.989 80H616.813L613.573 75.32H613.381H609.997V80H606.109V63.2H613.381C617.869 63.2 620.677 65.528 620.677 69.296C620.677 71.816 619.405 73.664 617.221 74.6L620.989 80ZM616.741 69.296C616.741 67.448 615.541 66.368 613.165 66.368H609.997V72.224H613.165C615.541 72.224 616.741 71.12 616.741 69.296ZM631.894 80.288C626.59 80.288 622.702 76.592 622.702 71.6C622.702 66.608 626.59 62.912 631.894 62.912C637.174 62.912 641.086 66.584 641.086 71.6C641.086 76.616 637.174 80.288 631.894 80.288ZM631.894 76.976C634.894 76.976 637.15 74.792 637.15 71.6C637.15 68.408 634.894 66.224 631.894 66.224C628.894 66.224 626.638 68.408 626.638 71.6C626.638 74.792 628.894 76.976 631.894 76.976ZM644.008 80V63.2H647.896V76.832H656.32V80H644.008ZM662.356 76.88H671.5V80H658.492V63.2H671.188V66.32H662.356V69.968H670.156V72.992H662.356V76.88ZM522.285 102V85.2H529.917C535.413 85.2 539.181 88.512 539.181 93.6C539.181 98.688 535.413 102 529.917 102H522.285ZM526.173 98.808H529.725C533.061 98.808 535.245 96.816 535.245 93.6C535.245 90.384 533.061 88.392 529.725 88.392H526.173V98.808ZM545.977 98.88H555.121V102H542.113V85.2H554.809V88.32H545.977V91.968H553.777V94.992H545.977V98.88ZM573.052 102.288C567.844 102.288 563.956 98.664 563.956 93.6C563.956 88.536 567.844 84.912 573.076 84.912C575.98 84.912 578.404 85.968 579.988 87.888L577.492 90.192C576.364 88.896 574.948 88.224 573.268 88.224C570.124 88.224 567.892 90.432 567.892 93.6C567.892 96.768 570.124 98.976 573.268 98.976C574.948 98.976 576.364 98.304 577.492 96.984L579.988 99.288C578.404 101.232 575.98 102.288 573.052 102.288ZM582.613 102V85.2H586.501V98.832H594.925V102H582.613ZM597.097 102V85.2H600.985V102H597.097ZM608.836 98.88H617.98V102H604.972V85.2H617.668V88.32H608.836V91.968H616.636V94.992H608.836V98.88ZM632.642 85.2H636.482V102H633.29L624.914 91.8V102H621.074V85.2H624.29L632.642 95.4V85.2ZM643.937 102V88.368H638.561V85.2H653.201V88.368H647.825V102H643.937ZM659.157 98.88H668.301V102H655.293V85.2H667.989V88.32H659.157V91.968H666.957V94.992H659.157V98.88ZM676.914 102.288C674.25 102.288 671.562 101.496 670.074 100.344L671.394 97.416C672.81 98.448 674.922 99.168 676.938 99.168C679.242 99.168 680.178 98.4 680.178 97.368C680.178 94.224 670.41 96.384 670.41 90.144C670.41 87.288 672.714 84.912 677.49 84.912C679.602 84.912 681.762 85.416 683.322 86.4L682.122 89.352C680.562 88.464 678.954 88.032 677.466 88.032C675.162 88.032 674.274 88.896 674.274 89.952C674.274 93.048 684.042 90.912 684.042 97.08C684.042 99.888 681.714 102.288 676.914 102.288Z" fill="white"/>
<rect x="175" y="56" width="236" height="52" rx="7" fill="#535252"/>
<path d="M227.802 80L226.314 76.4H218.514L217.026 80H213.042L220.53 63.2H224.37L231.882 80H227.802ZM219.762 73.448H225.09L222.426 67.016L219.762 73.448ZM241.43 80.288C236.222 80.288 232.334 76.664 232.334 71.6C232.334 66.536 236.222 62.912 241.454 62.912C244.358 62.912 246.782 63.968 248.366 65.888L245.87 68.192C244.742 66.896 243.326 66.224 241.646 66.224C238.502 66.224 236.27 68.432 236.27 71.6C236.27 74.768 238.502 76.976 241.646 76.976C243.326 76.976 244.742 76.304 245.87 74.984L248.366 77.288C246.782 79.232 244.358 80.288 241.43 80.288ZM254.856 76.88H264V80H250.992V63.2H263.688V66.32H254.856V69.968H262.656V72.992H254.856V76.88ZM272.614 80.288C269.95 80.288 267.262 79.496 265.774 78.344L267.094 75.416C268.51 76.448 270.622 77.168 272.638 77.168C274.942 77.168 275.878 76.4 275.878 75.368C275.878 72.224 266.11 74.384 266.11 68.144C266.11 65.288 268.414 62.912 273.19 62.912C275.302 62.912 277.462 63.416 279.022 64.4L277.822 67.352C276.262 66.464 274.654 66.032 273.166 66.032C270.862 66.032 269.974 66.896 269.974 67.952C269.974 71.048 279.742 68.912 279.742 75.08C279.742 77.888 277.414 80.288 272.614 80.288ZM287.918 80.288C285.254 80.288 282.566 79.496 281.078 78.344L282.398 75.416C283.814 76.448 285.926 77.168 287.942 77.168C290.246 77.168 291.182 76.4 291.182 75.368C291.182 72.224 281.414 74.384 281.414 68.144C281.414 65.288 283.718 62.912 288.494 62.912C290.606 62.912 292.766 63.416 294.326 64.4L293.126 67.352C291.566 66.464 289.958 66.032 288.47 66.032C286.166 66.032 285.278 66.896 285.278 67.952C285.278 71.048 295.046 68.912 295.046 75.08C295.046 77.888 292.718 80.288 287.918 80.288ZM305.839 80.288C300.535 80.288 296.647 76.592 296.647 71.6C296.647 66.608 300.535 62.912 305.839 62.912C311.119 62.912 315.031 66.584 315.031 71.6C315.031 76.616 311.119 80.288 305.839 80.288ZM305.839 76.976C308.839 76.976 311.095 74.792 311.095 71.6C311.095 68.408 308.839 66.224 305.839 66.224C302.839 66.224 300.583 68.408 300.583 71.6C300.583 74.792 302.839 76.976 305.839 76.976ZM323.473 80.288C320.809 80.288 318.121 79.496 316.633 78.344L317.953 75.416C319.369 76.448 321.481 77.168 323.497 77.168C325.801 77.168 326.737 76.4 326.737 75.368C326.737 72.224 316.969 74.384 316.969 68.144C316.969 65.288 319.273 62.912 324.049 62.912C326.161 62.912 328.321 63.416 329.881 64.4L328.681 67.352C327.121 66.464 325.513 66.032 324.025 66.032C321.721 66.032 320.833 66.896 320.833 67.952C320.833 71.048 330.601 68.912 330.601 75.08C330.601 77.888 328.273 80.288 323.473 80.288ZM352.607 80L351.119 76.4H343.319L341.831 80H337.846L345.335 63.2H349.175L356.687 80H352.607ZM344.567 73.448H349.895L347.231 67.016L344.567 73.448ZM363.95 80.288C361.286 80.288 358.598 79.496 357.11 78.344L358.43 75.416C359.846 76.448 361.958 77.168 363.974 77.168C366.278 77.168 367.214 76.4 367.214 75.368C367.214 72.224 357.446 74.384 357.446 68.144C357.446 65.288 359.75 62.912 364.526 62.912C366.638 62.912 368.798 63.416 370.358 64.4L369.158 67.352C367.598 66.464 365.99 66.032 364.502 66.032C362.198 66.032 361.31 66.896 361.31 67.952C361.31 71.048 371.078 68.912 371.078 75.08C371.078 77.888 368.75 80.288 363.95 80.288ZM186.634 102.288C181.426 102.288 177.538 98.664 177.538 93.6C177.538 88.536 181.426 84.912 186.658 84.912C189.562 84.912 191.986 85.968 193.57 87.888L191.074 90.192C189.946 88.896 188.53 88.224 186.85 88.224C183.706 88.224 181.474 90.432 181.474 93.6C181.474 96.768 183.706 98.976 186.85 98.976C188.53 98.976 189.946 98.304 191.074 96.984L193.57 99.288C191.986 101.232 189.562 102.288 186.634 102.288ZM203.98 102.288C198.676 102.288 194.788 98.592 194.788 93.6C194.788 88.608 198.676 84.912 203.98 84.912C209.26 84.912 213.172 88.584 213.172 93.6C213.172 98.616 209.26 102.288 203.98 102.288ZM203.98 98.976C206.98 98.976 209.236 96.792 209.236 93.6C209.236 90.408 206.98 88.224 203.98 88.224C200.98 88.224 198.724 90.408 198.724 93.6C198.724 96.792 200.98 98.976 203.98 98.976ZM227.662 85.2H231.502V102H228.31L219.934 91.8V102H216.094V85.2H219.31L227.662 95.4V85.2ZM240.996 102.288C238.332 102.288 235.644 101.496 234.156 100.344L235.476 97.416C236.892 98.448 239.004 99.168 241.02 99.168C243.324 99.168 244.26 98.4 244.26 97.368C244.26 94.224 234.492 96.384 234.492 90.144C234.492 87.288 236.796 84.912 241.572 84.912C243.684 84.912 245.844 85.416 247.404 86.4L246.204 89.352C244.644 88.464 243.036 88.032 241.548 88.032C239.244 88.032 238.356 88.896 238.356 89.952C238.356 93.048 248.124 90.912 248.124 97.08C248.124 99.888 245.796 102.288 240.996 102.288ZM250.781 102V85.2H254.669V102H250.781ZM258.656 102V85.2H262.544V98.832H270.968V102H258.656ZM273.14 102V85.2H277.028V102H273.14ZM281.015 102V85.2H288.647C294.143 85.2 297.911 88.512 297.911 93.6C297.911 98.688 294.143 102 288.647 102H281.015ZM284.903 98.808H288.455C291.791 98.808 293.975 96.816 293.975 93.6C293.975 90.384 291.791 88.392 288.455 88.392H284.903V98.808ZM313.161 102L311.673 98.4H303.873L302.385 102H298.401L305.889 85.2H309.729L317.241 102H313.161ZM305.121 95.448H310.449L307.785 89.016L305.121 95.448ZM318.984 102V85.2H326.616C332.112 85.2 335.88 88.512 335.88 93.6C335.88 98.688 332.112 102 326.616 102H318.984ZM322.872 98.808H326.424C329.76 98.808 331.944 96.816 331.944 93.6C331.944 90.384 329.76 88.392 326.424 88.392H322.872V98.808ZM346.948 102.288C341.644 102.288 337.756 98.592 337.756 93.6C337.756 88.608 341.644 84.912 346.948 84.912C352.228 84.912 356.14 88.584 356.14 93.6C356.14 98.616 352.228 102.288 346.948 102.288ZM346.948 98.976C349.948 98.976 352.204 96.792 352.204 93.6C352.204 90.408 349.948 88.224 346.948 88.224C343.948 88.224 341.692 90.408 341.692 93.6C341.692 96.792 343.948 98.976 346.948 98.976ZM373.942 102H369.766L366.526 97.32H366.334H362.95V102H359.062V85.2H366.334C370.822 85.2 373.63 87.528 373.63 91.296C373.63 93.816 372.358 95.664 370.174 96.6L373.942 102ZM369.694 91.296C369.694 89.448 368.494 88.368 366.118 88.368H362.95V94.224H366.118C368.494 94.224 369.694 93.12 369.694 91.296ZM389.263 102L387.775 98.4H379.975L378.487 102H374.503L381.991 85.2H385.831L393.343 102H389.263ZM381.223 95.448H386.551L383.887 89.016L381.223 95.448ZM400.606 102.288C397.942 102.288 395.254 101.496 393.766 100.344L395.086 97.416C396.502 98.448 398.614 99.168 400.63 99.168C402.934 99.168 403.87 98.4 403.87 97.368C403.87 94.224 394.102 96.384 394.102 90.144C394.102 87.288 396.406 84.912 401.182 84.912C403.294 84.912 405.454 85.416 407.014 86.4L405.814 89.352C404.254 88.464 402.646 88.032 401.158 88.032C398.854 88.032 397.966 88.896 397.966 89.952C397.966 93.048 407.734 90.912 407.734 97.08C407.734 99.888 405.406 102.288 400.606 102.288Z" fill="white"/>
<path d="M347.266 278.4H356.674L342.274 312H332.914L318.562 278.4H328.834L337.954 300.288L347.266 278.4ZM358.641 312V278.4H368.145V312H358.641ZM400.059 312L397.419 305.472H383.211L380.571 312H370.875L385.707 278.4H395.067L409.947 312H400.059ZM385.995 298.464H394.635L390.315 287.712L385.995 298.464ZM420.688 312.672C415.792 312.672 411.616 310.944 409.024 307.728L414.208 301.584C415.984 303.888 417.856 305.088 420.016 305.088C422.752 305.088 424.24 303.408 424.24 300.192V285.744H412.624V278.4H433.648V299.616C433.648 308.352 429.136 312.672 420.688 312.672ZM464.512 312L461.872 305.472H447.664L445.024 312H435.328L450.16 278.4H459.52L474.4 312H464.512ZM450.448 298.464H459.088L454.768 287.712L450.448 298.464ZM359.985 328.744H343.137V336.136H357.969V343.48H343.137V355H333.633V321.4H359.985V328.744ZM364.43 355V321.4H373.934V347.464H389.966V355H364.43ZM408.903 355.672C398.967 355.672 393.111 350.056 393.111 340.024V321.4H402.615V339.736C402.615 345.496 405.015 347.8 408.999 347.8C412.935 347.8 415.335 345.496 415.335 339.736V321.4H424.695V340.024C424.695 350.056 418.839 355.672 408.903 355.672ZM462.825 355H451.881L444.921 344.584L438.057 355H427.209L439.449 338.008L427.737 321.4H438.441L445.161 331.096L451.785 321.4H462.057L450.345 337.624L462.825 355Z" fill="white"/>
</svg>
