<?xml version="1.0" encoding="UTF-8"?>
<svg width="328px" height="52px" viewBox="0 0 328 52" version="1.1" xmlns="http://www.w3.org/2000/svg" xmlns:xlink="http://www.w3.org/1999/xlink">
    <title>Logo</title>
    <g id="Page-1" stroke="none" stroke-width="1" fill="none" fill-rule="evenodd">
        <g id="Logo" transform="translate(0.466147, 1.000000)" fill="#FFFFFF">
            <g id="Renda-com-Milhas" transform="translate(62.533853, 15.000000)" fill-rule="nonzero" stroke="#FFFFFF">
                <path d="M0,22 L0,2 L7.57019064,2 C9.27094165,2 10.7221259,2.27619048 11.9237435,2.82857143 C13.1253611,3.38095238 14.0496823,4.18095238 14.6967071,5.22857143 C15.3437319,6.27619048 15.6672444,7.52380952 15.6672444,8.97142857 C15.6672444,10.4190476 15.3437319,11.6619048 14.6967071,12.7 C14.0496823,13.7380952 13.1253611,14.5333333 11.9237435,15.0857143 C10.7221259,15.6380952 9.27094165,15.9142857 7.57019064,15.9142857 L1.52512998,15.9142857 L2.7729636,14.6 L2.7729636,22 L0,22 Z M12.9774697,22 L8.04159445,14.7428571 L11.0086655,14.7428571 L16,22 L12.9774697,22 Z M2.7729636,14.8857143 L1.52512998,13.4857143 L7.48700173,13.4857143 C9.26169844,13.4857143 10.6065858,13.0904762 11.5216638,12.3 C12.4367418,11.5095238 12.8942808,10.4 12.8942808,8.97142857 C12.8942808,7.54285714 12.4367418,6.43809524 11.5216638,5.65714286 C10.6065858,4.87619048 9.26169844,4.48571429 7.48700173,4.48571429 L1.52512998,4.48571429 L2.7729636,3.05714286 L2.7729636,14.8857143 Z" id="Shape"></path>
                <path d="M27.0965909,22 C25.4867424,22 24.0710227,21.65496 22.8494318,20.9648799 C21.6278409,20.2747998 20.6808712,19.3284042 20.0085227,18.1256932 C19.3361742,16.9229821 19,15.5428219 19,13.9852126 C19,12.4276032 19.3267045,11.047443 19.9801136,9.84473198 C20.6335227,8.64202095 21.5331439,7.70055453 22.6789773,7.02033272 C23.8248106,6.34011091 25.1174242,6 26.5568182,6 C28.0151515,6 29.3030303,6.33518176 30.4204545,7.00554529 C31.5378788,7.67590881 32.4138258,8.61737523 33.0482955,9.82994455 C33.6827652,11.0425139 34,12.4571781 34,14.0739372 C34,14.1922366 33.9952652,14.3302526 33.9857955,14.4879852 C33.9763258,14.6457178 33.9621212,14.7935921 33.9431818,14.9316081 L21.1306818,14.9316081 L21.1306818,12.8909427 L32.5227273,12.8909427 L31.4147727,13.6007394 C31.4337121,12.5951941 31.2348485,11.69809 30.8181818,10.909427 C30.4015152,10.120764 29.8285985,9.50462107 29.0994318,9.06099815 C28.3702652,8.61737523 27.5227273,8.39556377 26.5568182,8.39556377 C25.6098485,8.39556377 24.7670455,8.61737523 24.0284091,9.06099815 C23.2897727,9.50462107 22.7121212,10.1256932 22.2954545,10.9242144 C21.8787879,11.7227357 21.6704545,12.6346272 21.6704545,13.6598891 L21.6704545,14.1330869 C21.6704545,15.1780653 21.9024621,16.1096734 22.3664773,16.9279113 C22.8304924,17.7461491 23.4791667,18.3820086 24.3125,18.8354898 C25.1458333,19.288971 26.1022727,19.5157116 27.1818182,19.5157116 C28.0719697,19.5157116 28.8816288,19.3579791 29.6107955,19.0425139 C30.3399621,18.7270487 30.9791667,18.2538509 31.5284091,17.6229205 L33.0340909,19.4565619 C32.3522727,20.284658 31.5047348,20.9155884 30.4914773,21.349353 C29.4782197,21.7831177 28.3465909,22 27.0965909,22 Z" id="Path"></path>
                <path d="M45.8767396,6 C47.0828363,6 48.1451292,6.24922118 49.0636183,6.74766355 C49.9821074,7.24610592 50.7011266,8.00373832 51.2206759,9.02056075 C51.7402253,10.0373832 52,11.3233645 52,12.8785047 L52,22 L49.3280318,22 L49.3280318,13.2074766 C49.3280318,11.6722741 48.9801193,10.5158879 48.2842942,9.73831776 C47.5884692,8.96074766 46.6096753,8.57196262 45.3479125,8.57196262 C44.4015905,8.57196262 43.5758781,8.77133956 42.8707753,9.17009346 C42.1656726,9.56884735 41.6229291,10.1570093 41.2425447,10.9345794 C40.8621604,11.7121495 40.6719682,12.6791277 40.6719682,13.835514 L40.6719682,22 L38,22 L38,6.14953271 L40.5606362,6.14953271 L40.5606362,10.4261682 L40.1431412,9.28971963 C40.6255799,8.2529595 41.3677932,7.44548287 42.3697813,6.86728972 C43.3717694,6.28909657 44.5407555,6 45.8767396,6 Z" id="Path"></path>
                <path d="M63.8105647,22 C62.3145112,22 60.9787492,21.6666667 59.8032787,21 C58.6278081,20.3333333 57.7000607,19.4019608 57.0200364,18.2058824 C56.3400121,17.0098039 56,15.6176471 56,14.0294118 C56,12.4411765 56.3400121,11.0539216 57.0200364,9.86764706 C57.7000607,8.68137255 58.6278081,7.75490196 59.8032787,7.08823529 C60.9787492,6.42156863 62.3145112,6.08823529 63.8105647,6.08823529 C65.1123254,6.08823529 66.287796,6.38235294 67.3369763,6.97058824 C68.3861566,7.55882353 69.2264724,8.44117647 69.8579235,9.61764706 C70.4893746,10.7941176 70.8051002,12.2647059 70.8051002,14.0294118 C70.8051002,15.7941176 70.4990893,17.2647059 69.8870674,18.4411765 C69.2750455,19.6176471 68.4444444,20.504902 67.3952641,21.1029412 C66.3460838,21.7009804 65.151184,22 63.8105647,22 Z M64.0437158,19.5294118 C65.0151791,19.5294118 65.8943534,19.3039216 66.6812386,18.8529412 C67.4681239,18.4019608 68.0898604,17.7598039 68.5464481,16.9264706 C69.0030358,16.0931373 69.2313297,15.127451 69.2313297,14.0294118 C69.2313297,12.9117647 69.0030358,11.9460784 68.5464481,11.1323529 C68.0898604,10.3186275 67.4681239,9.68627451 66.6812386,9.23529412 C65.8943534,8.78431373 65.0151791,8.55882353 64.0437158,8.55882353 C63.0528233,8.55882353 62.1687917,8.78431373 61.3916211,9.23529412 C60.6144505,9.68627451 59.992714,10.3186275 59.5264117,11.1323529 C59.0601093,11.9460784 58.8269581,12.9117647 58.8269581,14.0294118 C58.8269581,15.127451 59.0601093,16.0931373 59.5264117,16.9264706 C59.992714,17.7598039 60.6144505,18.4019608 61.3916211,18.8529412 C62.1687917,19.3039216 63.0528233,19.5294118 64.0437158,19.5294118 Z M69.3187614,21.8235294 L69.3187614,17.6176471 L69.4936248,14 L69.2021858,10.3823529 L69.2021858,0 L72,0 L72,21.8235294 L69.3187614,21.8235294 Z" id="Shape"></path>
                <path d="M86.4338395,21.8225508 L86.4338395,18.5101664 L86.2928416,17.8890943 L86.2928416,12.2402957 C86.2928416,11.0375847 85.9591468,10.1059766 85.291757,9.44547135 C84.6243673,8.78496611 83.6232827,8.45471349 82.2885033,8.45471349 C81.4049168,8.45471349 80.5401302,8.60751694 79.6941432,8.91312384 C78.8481562,9.21873075 78.1337672,9.62784966 77.5509761,10.1404806 L76.4229935,8.01109057 C77.1937816,7.36044362 78.1196674,6.86260012 79.2006508,6.51756007 C80.2816341,6.17252002 81.4143167,6 82.5986985,6 C84.647867,6 86.2270427,6.52248922 87.3362256,7.56746765 C88.4454085,8.61244609 89,10.2094886 89,12.3585952 L89,21.8225508 L86.4338395,21.8225508 Z M81.527115,22 C80.417932,22 79.445047,21.8028343 78.6084599,21.4085028 C77.7718727,21.0141713 77.1279826,20.4670364 76.6767896,19.767098 C76.2255965,19.0671596 76,18.2735675 76,17.3863216 C76,16.5385089 76.192697,15.7695625 76.5780911,15.0794824 C76.9634852,14.3894023 77.5932755,13.8373383 78.467462,13.4232902 C79.3416486,13.0092421 80.5213304,12.8022181 82.0065076,12.8022181 L86.7440347,12.8022181 L86.7440347,14.8428835 L82.1193059,14.8428835 C80.7657267,14.8428835 79.8539407,15.0794824 79.3839479,15.5526802 C78.9139552,16.025878 78.6789588,16.5976587 78.6789588,17.2680222 C78.6789588,18.0369686 78.9703543,18.6531115 79.5531453,19.116451 C80.1359364,19.5797905 80.9443239,19.8114603 81.978308,19.8114603 C82.9934924,19.8114603 83.8817787,19.5748614 84.643167,19.1016636 C85.4045553,18.6284658 85.9544469,17.9383857 86.2928416,17.0314233 L86.8286334,18.9833641 C86.4714389,19.9100431 85.8416486,20.6444855 84.9392625,21.1866913 C84.0368764,21.7288971 82.8994939,22 81.527115,22 Z" id="Shape"></path>
                <path d="M107.903226,22 C106.379032,22 105.019489,21.65496 103.824597,20.9648799 C102.629704,20.2747998 101.693548,19.3284042 101.016129,18.1256932 C100.33871,16.9229821 100,15.5428219 100,13.9852126 C100,12.4276032 100.33871,11.047443 101.016129,9.84473198 C101.693548,8.64202095 102.629704,7.70055453 103.824597,7.02033272 C105.019489,6.34011091 106.379032,6 107.903226,6 C109.258065,6 110.46707,6.28096118 111.530242,6.84288355 C112.593414,7.40480591 113.416667,8.23783118 114,9.34195933 L111.939516,10.7319778 C111.450269,9.96303142 110.852823,9.39617991 110.147177,9.03142329 C109.441532,8.66666667 108.68414,8.48428835 107.875,8.48428835 C106.896505,8.48428835 106.021505,8.71102896 105.25,9.16451017 C104.478495,9.61799137 103.866935,10.2538509 103.415323,11.0720887 C102.96371,11.8903266 102.737903,12.8613678 102.737903,13.9852126 C102.737903,15.1090573 102.96371,16.0850277 103.415323,16.9131238 C103.866935,17.74122 104.478495,18.3820086 105.25,18.8354898 C106.021505,19.288971 106.896505,19.5157116 107.875,19.5157116 C108.68414,19.5157116 109.441532,19.3333333 110.147177,18.9685767 C110.852823,18.6038201 111.450269,18.0369686 111.939516,17.2680222 L114,18.6284658 C113.416667,19.7128774 112.593414,20.5459026 111.530242,21.1275416 C110.46707,21.7091805 109.258065,22 107.903226,22 Z" id="Path"></path>
                <path d="M124.014519,22 C122.46582,22 121.091349,21.65496 119.891107,20.9648799 C118.690865,20.2747998 117.742287,19.323475 117.045372,18.1109057 C116.348457,16.8983364 116,15.5231054 116,13.9852126 C116,12.4276032 116.348457,11.047443 117.045372,9.84473198 C117.742287,8.64202095 118.690865,7.70055453 119.891107,7.02033272 C121.091349,6.34011091 122.46582,6 124.014519,6 C125.54386,6 126.913491,6.34011091 128.123412,7.02033272 C129.333333,7.70055453 130.281912,8.63709181 130.969147,9.82994455 C131.656382,11.0227973 132,12.4078866 132,13.9852126 C132,15.5428219 131.656382,16.9229821 130.969147,18.1256932 C130.281912,19.3284042 129.333333,20.2747998 128.123412,20.9648799 C126.913491,21.65496 125.54386,22 124.014519,22 Z M124.014519,19.5157116 C125.001815,19.5157116 125.887477,19.288971 126.671506,18.8354898 C127.455535,18.3820086 128.070175,17.7362908 128.515426,16.8983364 C128.960678,16.060382 129.183303,15.0893407 129.183303,13.9852126 C129.183303,12.8613678 128.960678,11.8903266 128.515426,11.0720887 C128.070175,10.2538509 127.455535,9.61799137 126.671506,9.16451017 C125.887477,8.71102896 125.001815,8.48428835 124.014519,8.48428835 C123.027223,8.48428835 122.1464,8.71102896 121.372051,9.16451017 C120.597701,9.61799137 119.978221,10.2538509 119.513612,11.0720887 C119.049002,11.8903266 118.816697,12.8613678 118.816697,13.9852126 C118.816697,15.0893407 119.049002,16.060382 119.513612,16.8983364 C119.978221,17.7362908 120.597701,18.3820086 121.372051,18.8354898 C122.1464,19.288971 123.027223,19.5157116 124.014519,19.5157116 Z" id="Shape"></path>
                <path d="M154.835227,6 C156.047348,6 157.117424,6.24922118 158.045455,6.74766355 C158.973485,7.24610592 159.697917,8.00373832 160.21875,9.02056075 C160.739583,10.0373832 161,11.3233645 161,12.8785047 L161,22 L158.272727,22 L158.272727,13.2074766 C158.272727,11.6722741 157.931818,10.5158879 157.25,9.73831776 C156.568182,8.96074766 155.611742,8.57196262 154.380682,8.57196262 C153.471591,8.57196262 152.676136,8.77133956 151.994318,9.17009346 C151.3125,9.56884735 150.786932,10.1570093 150.417614,10.9345794 C150.048295,11.7121495 149.863636,12.6791277 149.863636,13.835514 L149.863636,22 L147.136364,22 L147.136364,13.2074766 C147.136364,11.6722741 146.800189,10.5158879 146.127841,9.73831776 C145.455492,8.96074766 144.494318,8.57196262 143.244318,8.57196262 C142.354167,8.57196262 141.568182,8.77133956 140.886364,9.17009346 C140.204545,9.56884735 139.674242,10.1570093 139.295455,10.9345794 C138.916667,11.7121495 138.727273,12.6791277 138.727273,13.835514 L138.727273,22 L136,22 L136,6.14953271 L138.613636,6.14953271 L138.613636,10.3663551 L138.1875,9.28971963 C138.660985,8.2529595 139.390152,7.44548287 140.375,6.86728972 C141.359848,6.28909657 142.505682,6 143.8125,6 C145.251894,6 146.492424,6.37383178 147.534091,7.12149533 C148.575758,7.86915888 149.257576,9.00062305 149.579545,10.5158879 L148.471591,10.0373832 C148.926136,8.8211838 149.721591,7.84423676 150.857955,7.10654206 C151.994318,6.36884735 153.320076,6 154.835227,6 Z" id="Path"></path>
                <polygon id="Path" points="174 22 174 2 176.311409 2 185.162416 17.1142857 183.922148 17.1142857 192.660403 2 194.971812 2 195 22 192.29396 22 192.265772 6.31428571 192.914094 6.31428571 185.134228 19.5714286 183.837584 19.5714286 176.001342 6.31428571 176.70604 6.31428571 176.70604 22"></polygon>
                <path d="M200.523077,22 L200.523077,6.59709379 L203.476923,6.59709379 L203.476923,22 L200.523077,22 Z M202,3.6327609 C201.425641,3.6327609 200.948718,3.45838838 200.569231,3.10964333 C200.189744,2.76089828 200,2.33465434 200,1.83091149 C200,1.30779392 200.189744,0.871862616 200.569231,0.523117569 C200.948718,0.174372523 201.425641,0 202,0 C202.574359,0 203.051282,0.169528842 203.430769,0.508586526 C203.810256,0.84764421 204,1.26904447 204,1.77278732 C204,2.29590489 203.815385,2.73667988 203.446154,3.09511229 C203.076923,3.45354469 202.594872,3.6327609 202,3.6327609 Z" id="Shape"></path>
                <polygon id="Path" points="209 22 209 0 212 0 212 22"></polygon>
                <path d="M224.87674,6.13746631 C226.082836,6.13746631 227.145129,6.38454627 228.063618,6.8787062 C228.982107,7.37286613 229.701127,8.12398922 230.220676,9.13207547 C230.740225,10.1401617 231,11.4150943 231,12.9568733 L231,22 L228.328032,22 L228.328032,13.2830189 C228.328032,11.7610063 227.980119,10.6145553 227.284294,9.84366577 C226.588469,9.07277628 225.609675,8.68733154 224.347913,8.68733154 C223.40159,8.68733154 222.575878,8.88499551 221.870775,9.28032345 C221.165673,9.67565139 220.622929,10.2587601 220.242545,11.0296496 C219.86216,11.8005391 219.671968,12.7592093 219.671968,13.9056604 L219.671968,22 L217,22 L217,0 L219.671968,0 L219.671968,10.5256065 L219.143141,9.39892183 C219.62558,8.37106918 220.367793,7.5705301 221.369781,6.99730458 C222.371769,6.42407907 223.540755,6.13746631 224.87674,6.13746631 Z" id="Path"></path>
                <path d="M245.433839,21.8225508 L245.433839,18.5101664 L245.292842,17.8890943 L245.292842,12.2402957 C245.292842,11.0375847 244.959147,10.1059766 244.291757,9.44547135 C243.624367,8.78496611 242.623283,8.45471349 241.288503,8.45471349 C240.404917,8.45471349 239.54013,8.60751694 238.694143,8.91312384 C237.848156,9.21873075 237.133767,9.62784966 236.550976,10.1404806 L235.422993,8.01109057 C236.193782,7.36044362 237.119667,6.86260012 238.200651,6.51756007 C239.281634,6.17252002 240.414317,6 241.598698,6 C243.647867,6 245.227043,6.52248922 246.336226,7.56746765 C247.445409,8.61244609 248,10.2094886 248,12.3585952 L248,21.8225508 L245.433839,21.8225508 Z M240.527115,22 C239.417932,22 238.445047,21.8028343 237.60846,21.4085028 C236.771873,21.0141713 236.127983,20.4670364 235.67679,19.767098 C235.225597,19.0671596 235,18.2735675 235,17.3863216 C235,16.5385089 235.192697,15.7695625 235.578091,15.0794824 C235.963485,14.3894023 236.593275,13.8373383 237.467462,13.4232902 C238.341649,13.0092421 239.52133,12.8022181 241.006508,12.8022181 L245.744035,12.8022181 L245.744035,14.8428835 L241.119306,14.8428835 C239.765727,14.8428835 238.853941,15.0794824 238.383948,15.5526802 C237.913955,16.025878 237.678959,16.5976587 237.678959,17.2680222 C237.678959,18.0369686 237.970354,18.6531115 238.553145,19.116451 C239.135936,19.5797905 239.944324,19.8114603 240.978308,19.8114603 C241.993492,19.8114603 242.881779,19.5748614 243.643167,19.1016636 C244.404555,18.6284658 244.954447,17.9383857 245.292842,17.0314233 L245.828633,18.9833641 C245.471439,19.9100431 244.841649,20.6444855 243.939262,21.1866913 C243.036876,21.7288971 241.899494,22 240.527115,22 Z" id="Shape"></path>
                <path d="M257.354911,22 C256.078125,22 254.864211,21.8225508 253.71317,21.4676525 C252.562128,21.1127542 251.657738,20.6789895 251,20.1663586 L252.160714,17.9186691 C252.818452,18.3721503 253.630952,18.7566235 254.598214,19.0720887 C255.565476,19.3875539 256.552083,19.5452865 257.558036,19.5452865 C258.854167,19.5452865 259.787574,19.3579791 260.358259,18.9833641 C260.928943,18.6087492 261.214286,18.08626 261.214286,17.4158965 C261.214286,16.9229821 261.040179,16.5385089 260.691964,16.2624769 C260.34375,15.9864449 259.884301,15.7794208 259.313616,15.6414048 C258.742932,15.5033888 258.109375,15.3801602 257.412946,15.271719 C256.716518,15.1632779 256.020089,15.0252619 255.323661,14.857671 C254.627232,14.6900801 253.988839,14.4534812 253.408482,14.1478743 C252.828125,13.8422674 252.363839,13.4183611 252.015625,12.8761553 C251.667411,12.3339495 251.493304,11.6093654 251.493304,10.702403 C251.493304,9.75600739 251.754464,8.92791128 252.276786,8.2181146 C252.799107,7.50831793 253.539062,6.96118299 254.496652,6.5767098 C255.454241,6.1922366 256.590774,6 257.90625,6 C258.912202,6 259.932664,6.12322859 260.967634,6.36968577 C262.002604,6.61614295 262.848958,6.96611214 263.506696,7.41959335 L262.316964,9.66728281 C261.620536,9.19408503 260.895089,8.86876155 260.140625,8.69131238 C259.386161,8.51386322 258.631696,8.42513863 257.877232,8.42513863 C256.658482,8.42513863 255.749256,8.62723352 255.149554,9.03142329 C254.549851,9.43561306 254.25,9.95317314 254.25,10.5841035 C254.25,11.116451 254.428943,11.5255699 254.78683,11.8114603 C255.144717,12.0973506 255.609003,12.319162 256.179688,12.4768946 C256.750372,12.6346272 257.383929,12.7677141 258.080357,12.8761553 C258.776786,12.9845964 259.473214,13.1226124 260.169643,13.2902033 C260.866071,13.4577942 261.499628,13.689464 262.070312,13.9852126 C262.640997,14.2809612 263.105283,14.6950092 263.46317,15.2273567 C263.821057,15.7597043 264,16.4695009 264,17.3567468 C264,18.3031423 263.729167,19.1213802 263.1875,19.8114603 C262.645833,20.5015404 261.881696,21.038817 260.895089,21.4232902 C259.908482,21.8077634 258.728423,22 257.354911,22 Z" id="Path"></path>
            </g>
            <g id="$" transform="translate(13.533853, 0.000000)" fill-rule="nonzero" stroke="#FFFFFF">
                <path d="M13.0742115,50 L13.0742115,41 L17.0742115,41 L17.0742115,50 L13.0742115,50 Z M13.0742115,9 L13.0742115,0 L17.0742115,0 L17.0742115,9 L13.0742115,9 Z M14.419295,44.0425532 C11.5497835,44.0425532 8.80581323,43.608156 6.18738404,42.7393617 C3.56895485,41.8705674 1.50649351,40.7446809 0,39.3617021 L1.99072356,35.212766 C3.42547928,36.4539007 5.25479283,37.4822695 7.47866419,38.2978723 C9.70253556,39.1134752 12.0160792,39.5212766 14.419295,39.5212766 C16.6072975,39.5212766 18.3828077,39.2730496 19.7458256,38.7765957 C21.1088435,38.2801418 22.1131725,37.5975177 22.7588126,36.7287234 C23.4044527,35.8599291 23.7272727,34.8758865 23.7272727,33.7765957 C23.7272727,32.5 23.3058132,31.4716312 22.4628942,30.6914894 C21.6199753,29.9113475 20.525974,29.2819149 19.1808905,28.8031915 C17.8358071,28.3244681 16.3562152,27.9078014 14.742115,27.5531915 C13.1280148,27.1985816 11.5049474,26.7819149 9.8729128,26.3031915 C8.24087817,25.8244681 6.75231911,25.212766 5.40723562,24.4680851 C4.06215213,23.7234043 2.97711812,22.7216312 2.15213358,21.462766 C1.32714904,20.2039007 0.914656772,18.5815603 0.914656772,16.5957447 C0.914656772,14.6808511 1.4257885,12.9166667 2.44805195,11.3031915 C3.4703154,9.68971631 5.04854669,8.39539007 7.18274583,7.42021277 C9.31694496,6.44503546 12.0340136,5.95744681 15.3339518,5.95744681 C17.5219542,5.95744681 19.6920223,6.24113475 21.8441558,6.80851064 C23.9962894,7.37588652 25.8614719,8.19148936 27.4397032,9.25531915 L25.6641929,13.5106383 C24.0500928,12.4468085 22.3463203,11.6755319 20.5528757,11.1968085 C18.759431,10.7180851 17.0197897,10.4787234 15.3339518,10.4787234 C13.2176871,10.4787234 11.4780458,10.7446809 10.1150278,11.2765957 C8.75200989,11.8085106 7.75664811,12.5177305 7.12894249,13.4042553 C6.50123686,14.2907801 6.18738404,15.2836879 6.18738404,16.3829787 C6.18738404,17.6950355 6.60884354,18.7411348 7.45176252,19.5212766 C8.29468151,20.3014184 9.38868275,20.9219858 10.7337662,21.3829787 C12.0788497,21.8439716 13.5584416,22.2606383 15.1725417,22.6329787 C16.7866419,23.0053191 18.4097093,23.4219858 20.041744,23.8829787 C21.6737786,24.3439716 23.1623377,24.9468085 24.5074212,25.6914894 C25.8525046,26.4361702 26.9375387,27.429078 27.7625232,28.6702128 C28.5875077,29.9113475 29,31.5070922 29,33.4574468 C29,35.3368794 28.4799011,37.0833333 27.4397032,38.6968085 C26.3995053,40.3102837 24.7943723,41.6046099 22.6243043,42.5797872 C20.4542362,43.5549645 17.7192331,44.0425532 14.419295,44.0425532 Z" id="Shape"></path>
            </g>
            <path d="M46.290555,29 C53.8461021,34.1509773 53.6275231,42.334293 41.5810012,41 C30.5875852,39.7823508 24.7424172,35.1592803 16.447598,30.6681101 C12.4891002,28.5248099 1.09737893,21.2514612 5.48427504,22.2607107 C5.8079922,22.3351851 48.7600383,48.811269 47.1353611,30.6681101 L46.290555,29 Z" id="Path-2"></path>
            <g id="Group" transform="translate(4.993717, 21.988622) rotate(-47.000000) translate(-4.993717, -21.988622) translate(1.891906, 18.053061)">
                <polygon id="Rectangle" transform="translate(2.961333, 4.909788) rotate(-225.000000) translate(-2.961333, -4.909788) " points="0.867354413 2.81580884 2.00216705 5.92484362 5.05531199 7.00376642 0.867354413 7.00376642"></polygon>
                <polygon id="Rectangle-Copy" transform="translate(3.321878, 2.881744) rotate(-225.000000) translate(-3.321878, -2.881744) " points="5.21248054 0.709076097 5.22461166 2.39496808 1.41914416 5.0544129"></polygon>
            </g>
        </g>
    </g>
</svg>